HIERARCHY
ROOT Hips
{
  OFFSET 196.326 95.9168 97.7182
  CHANNELS 6 Xposition Yposition Zposition Zrotation Xrotation Yrotation
  JOINT LeftUpLeg
  {
    OFFSET 8.64259 1.95398 -2.38835
    CHANNELS 3 Zrotation Xrotation Yrotation
    JOINT LeftLeg
    {
      OFFSET 43.7702 0 0
      CHANNELS 3 Zrotation Xrotation Yrotation
      JOINT LeftFoot
      {
        OFFSET 40.6238 0 0
        CHANNELS 3 Zrotation Xrotation Yrotation
        JOINT LeftToeBase
        {
          OFFSET 12.7242 0 0
          CHANNELS 3 Zrotation Xrotation Yrotation
          End Site
          {
            OFFSET 0 0 0
          }
        }
      }
    }
  }
  JOINT RightUpLeg
  {
    OFFSET -8.2249 1.95398 -2.59336
    CHANNELS 3 Zrotation Xrotation Yrotation
    JOINT RightLeg
    {
      OFFSET 43.5653 0 0
      CHANNELS 3 Zrotation Xrotation Yrotation
      JOINT RightFoot
      {
        OFFSET 40.6238 0 0
        CHANNELS 3 Zrotation Xrotation Yrotation
        JOINT RightToeBase
        {
          OFFSET 12.7242 0 0
          CHANNELS 3 Zrotation Xrotation Yrotation
          End Site
          {
            OFFSET 0 0 0
          }
        }
      }
    }
  }
  JOINT Spine
  {
    OFFSET 0.165834 0.87714 6.61349
    CHANNELS 3 Zrotation Xrotation Yrotation
    JOINT Spine1
    {
      OFFSET 7.38963 1.71661e-005 0
      CHANNELS 3 Zrotation Xrotation Yrotation
      JOINT Spine2
      {
        OFFSET 11.9445 1.14441e-005 0
        CHANNELS 3 Zrotation Xrotation Yrotation
        JOINT Spine3
        {
          OFFSET 14.7254 4.19617e-005 0
          CHANNELS 3 Zrotation Xrotation Yrotation
          JOINT Spine4
          {
            OFFSET 10.9679 0 0
            CHANNELS 3 Zrotation Xrotation Yrotation
            JOINT RightShoulder
            {
              OFFSET 2.46616 -1.6653 3.69651
              CHANNELS 3 Zrotation Xrotation Yrotation
              JOINT RightArm
              {
                OFFSET 13.0012 0 0
                CHANNELS 3 Zrotation Xrotation Yrotation
                JOINT RightForeArm
                {
                  OFFSET 28.7848 1.52588e-005 0
                  CHANNELS 3 Zrotation Xrotation Yrotation
                  JOINT RightHand
                  {
                    OFFSET 26.5688 1.52588e-005 0
                    CHANNELS 3 Zrotation Xrotation Yrotation
                    End Site
                    {
                      OFFSET 0 0 0
                    }
                  }
                }
              }
            }
            JOINT LeftShoulder
            {
              OFFSET 2.38034 -1.29275 -3.75231
              CHANNELS 3 Zrotation Xrotation Yrotation
              JOINT LeftArm
              {
                OFFSET 16.3182 6.10351e-005 0
                CHANNELS 3 Zrotation Xrotation Yrotation
                JOINT LeftForeArm
                {
                  OFFSET 27.0901 0 0
                  CHANNELS 3 Zrotation Xrotation Yrotation
                  JOINT LeftHand
                  {
                    OFFSET 24.5451 1.52588e-005 0
                    CHANNELS 3 Zrotation Xrotation Yrotation
                    End Site
                    {
                      OFFSET 0 0 0
                    }
                  }
                }
              }
            }
            JOINT Neck
            {
              OFFSET 5.0226 -0.0266342 0
              CHANNELS 3 Zrotation Xrotation Yrotation
              JOINT Head
              {
                OFFSET 6.69363 2.86102e-005 0
                CHANNELS 3 Zrotation Xrotation Yrotation
                End Site
                {
                  OFFSET 0 0 0
                }
              }
            }
          }
        }
      }
    }
  }
}
MOTION
Frames:	7
Frame Time:	0.0416667
-54.0621 58.8488 -336.141 -54.386 69.7184 55.3728 111.486 -16.5119 -156.199 -155.535 15.1382 80.5289 97.6542 46.8464 31.6241 -156.751 53.7117 -91.1742 -45.893 -35.5057 -140.339 -104.676 9.9908 53.9054 119.803 -18.9935 4.95068 158.99 -44.3286 -32.1189 1.8625 -2.25938 -101.992 30.3507 -3.96506 -24.04 18.4696 -4.98918 -23.8595 -2.32174 3.22106 -24.1445 17.6909 3.22107 -24.1445 70.9767 -66.1634 -121.515 114.573 -3.45591 -26.2834 167.201 -58.9509 -47.9628 -2.75761 -5.53261 -54.1729 -9.20997 -39.0772 -163.144 57.4077 36.915 -106.05 -16.6105 51.5165 -40.3513 2.57761 3.98043 74.4841 99.5174 -1.46096 -51.4206 -179.963 -55.2842 44.0248 
-54.0736 58.7197 -336.265 -54.2916 69.6237 55.2096 112.633 -18.3733 -156.086 -155.913 16.9059 79.5773 96.4646 47.2253 33.1411 -156.554 53.8457 -91.2487 -45.5999 -35.7794 -139.921 -103.687 8.98493 52.8473 120.386 -19.0615 4.75353 162.44 -40.2533 -28.1252 1.85332 -2.22766 -102.037 30.2777 -4.00155 -24.1187 18.3953 -5.0288 -23.9368 -2.38448 3.20757 -24.2302 17.6282 3.20757 -24.2302 70.8452 -65.9013 -121.783 114.487 -3.25209 -26.1854 166.806 -59.2822 -48.3108 -2.66585 -5.57077 -54.0649 -9.52484 -38.5389 -163.081 56.97 37.2645 -106.181 -16.6815 51.9404 -40.2869 2.80469 4.15216 74.2864 102.735 1.07044 -51.9104 -178.844 -59.0076 44.678 
-54.1104 58.3631 -336.619 -54.0262 69.3557 54.7406 115.804 -23.3725 -155.644 -156.727 21.714 77.0618 93.1941 48.1236 37.2523 -155.961 54.2463 -91.4775 -44.7124 -36.5041 -138.696 -100.948 5.87086 50.0312 122.043 -19.2429 4.20787 168.821 -27.8305 -19.5224 1.82533 -2.1384 -102.163 30.0717 -4.1077 -24.3395 18.1857 -5.14375 -24.1534 -2.56145 3.16593 -24.4714 17.4512 3.16592 -24.4714 70.4784 -65.1646 -122.54 114.239 -2.65339 -25.9097 165.554 -60.2487 -49.4205 -2.3865 -5.68765 -53.7561 -10.4594 -36.9877 -162.918 55.6848 38.3187 -106.515 -16.925 53.1676 -40.0708 3.45346 4.63525 73.7058 3.85053 -40.6699 -90.4747 157.43 -0.996136 67.6354 
-54.181 57.8343 -337.174 -53.619 68.941 53.9919 120.547 -30.3712 -154.647 -157.227 28.5327 73.4598 88.6031 49.0933 42.8933 -154.933 54.9325 -91.8876 -43.1961 -37.4931 -136.715 -96.9565 0.383464 46.2549 124.53 -19.4604 3.41327 172.167 -8.28186 -10.5244 1.77648 -2.00291 -102.352 29.7581 -4.2787 -24.6669 17.8668 -5.32775 -24.4741 -2.83134 3.09089 -24.8329 17.1813 3.09089 -24.8329 69.9134 -64.0671 -123.707 113.84 -1.68317 -25.4876 163.124 -61.8412 -51.5841 -1.89056 -5.89673 -53.2738 -12.01 -34.5436 -162.713 53.5922 40.1121 -106.903 -17.4194 55.1237 -39.6426 4.47515 5.37104 72.7503 -93.9391 1.15012 -132.601 108.322 -22.9528 101.592 
-54.2991 57.1918 -337.905 -53.0965 68.4071 52.9789 126.411 -38.097 -152.933 -156.744 36.0956 68.9872 83.5625 49.8153 48.93 -153.372 55.9579 -92.5409 -41.0263 -38.597 -134.044 -92.3609 -7.55879 42.4587 127.408 -19.5652 2.46974 169.608 14.4996 -0.974584 1.71954 -1.78838 -102.639 29.2656 -4.50272 -25.1776 17.3658 -5.57198 -24.9762 -3.25534 3.01437 -25.3846 16.7573 3.01435 -25.3846 69.1761 -62.3401 -125.389 113.306 -0.269407 -24.8006 158.7 -64.0849 -55.5522 -1.11138 -6.22731 -52.6587 -14.2178 -30.9676 -162.271 50.4426 42.9409 -107.195 -18.2808 57.7815 -38.8934 5.82358 6.29373 71.4214 -90.8925 -3.08806 -130.018 108.947 -23.8553 101.529 
-54.4769 56.4847 -338.786 -52.4811 67.7807 51.7066 132.939 -45.4566 -150.543 -155.047 43.2608 63.6991 78.6166 50.16 54.7056 -151.113 57.417 -93.5522 -38.1724 -39.7526 -130.699 -87.7705 -17.531 39.4055 130.176 -19.4018 1.44746 159.001 36.167 12.842 1.56198 -1.33438 -103.44 28.135 -5.1387 -26.6135 16.2108 -6.26515 -26.3882 -4.1958 2.79943 -26.9348 15.8168 2.79941 -26.9348 67.2637 -58.2513 -129.83 112.251 3.15447 -22.7168 149.423 -67.6845 -64.0501 0.0110011 -6.68984 -51.9807 -20.7655 -21.783 -161.455 41.5503 52.4382 -105.078 -21.8101 64.0027 -35.8186 7.31876 7.25394 69.8601 -93.3362 -8.38725 -126.034 106.738 -28.1053 100.751 
-54.719 55.7505 -339.79 -51.7893 67.0877 50.1686 139.561 -51.7238 -147.822 -152.327 49.255 57.7703 73.9647 50.0637 60.0026 -147.868 59.4724 -95.1393 -34.5403 -40.9278 -126.572 -83.3416 -28.8651 37.5751 132.42 -19.2201 0.144645 135.338 52.0564 37.7202 0.699436 -0.197682 -107.856 23.7573 -8.55966 -34.7335 11.5987 -9.95653 -34.3905 -6.61488 1.26454 -35.6629 13.3977 1.26453 -35.6629 68.1335 -47.8155 -134.826 106.55 11.58 -20.0036 122.239 -73.2653 -90.2152 1.49218 -7.25979 -51.3975 -42.0025 8.63361 -169.674 -44.9279 84.0282 -27.9844 2.91965 77.1984 -62.278 8.73091 8.0884 68.7853 -97.3105 -17.9198 -107.922 106.109 -33.2319 100.495 
